<?xml version="1.0" standalone="no"?>
<!DOCTYPE svg PUBLIC "-//W3C//DTD SVG 20010904//EN"
 "http://www.w3.org/TR/2001/REC-SVG-20010904/DTD/svg10.dtd">
<svg version="1.0" xmlns="http://www.w3.org/2000/svg"
 width="1024.000000pt" height="1024.000000pt" viewBox="0 0 1024.000000 1024.000000"
 preserveAspectRatio="xMidYMid meet">

<g transform="translate(0.000000,1024.000000) scale(0.100000,-0.100000)"
fill="#000000" stroke="none">
<path d="M5821 8569 c-114 -22 -235 -108 -294 -210 -66 -113 -74 -276 -18
-396 36 -76 115 -163 185 -202 106 -61 111 -61 670 -61 l511 -1 -1457 -1452
c-1382 -1377 -1459 -1455 -1488 -1518 -110 -238 -17 -495 219 -608 75 -35 78
-36 196 -35 135 0 170 10 263 71 35 24 609 588 1502 1479 l1445 1442 5 -657 5
-656 32 -68 c61 -129 175 -219 319 -253 184 -42 409 59 492 223 54 105 52 50
52 1338 0 1317 4 1236 -65 1353 -63 108 -178 188 -304 212 -66 12 -2205 12
-2270 -1z"/>
<path d="M2555 7524 c-398 -71 -698 -359 -802 -770 l-28 -109 0 -1935 0 -1935
21 -80 c55 -203 133 -345 263 -476 167 -168 389 -272 636 -298 115 -12 3558
-12 3680 0 470 46 826 356 916 796 19 89 19 148 17 1236 l-3 1142 -32 66
c-108 221 -386 316 -608 207 -85 -41 -174 -133 -207 -215 l-23 -58 -5 -985
c-4 -722 -9 -994 -17 -1018 -31 -87 -109 -180 -190 -227 -97 -57 -24 -55
-1684 -55 -1492 0 -1528 0 -1590 20 -120 37 -200 108 -258 230 l-26 55 0 1620
0 1620 22 53 c42 102 123 183 225 225 53 22 55 22 1053 27 l1000 5 70 34 c283
139 341 497 116 717 -52 51 -148 101 -220 114 -34 6 -457 10 -1150 9 -903 -1
-1110 -3 -1176 -15z"/>
</g>
</svg>
